# Blender 5.1.0
# www.blender.org
mtllib ball.mtl
o Cube
o Cylinder
v -0.301575 -0.813609 0.000000
v -0.093190 -0.813609 -0.286815
v 0.243980 -0.813609 -0.177260
v 0.243980 -0.813609 0.177260
v -0.093190 -0.813609 0.286815
v 0.723600 -0.447215 0.171195
v 0.781199 -0.145637 0.348461
v 0.572815 -0.145639 0.635278
v 0.386428 -0.447216 0.635277
v 0.479618 -0.633600 0.348459
v -0.183194 -0.633601 0.563823
v 0.060788 -0.447216 0.741086
v -0.090005 -0.145636 0.850644
v -0.427176 -0.145639 0.741091
v -0.484773 -0.447215 0.563826
v -0.592844 -0.633595 0.000000
v -0.686035 -0.447214 0.286814
v -0.836825 -0.145636 0.177259
v -0.836825 -0.145636 -0.177259
v -0.686035 -0.447214 -0.286814
v -0.183194 -0.633601 -0.563823
v -0.484773 -0.447215 -0.563826
v -0.427176 -0.145639 -0.741091
v -0.090005 -0.145636 -0.850644
v 0.060788 -0.447216 -0.741086
v 0.723600 -0.447215 -0.171195
v 0.479618 -0.633600 -0.348459
v 0.386428 -0.447216 -0.635277
v 0.572815 -0.145639 -0.635278
v 0.781199 -0.145637 -0.348461
v 0.090005 0.145636 0.850644
v 0.427176 0.145639 0.741091
v 0.484773 0.447215 0.563826
v 0.183194 0.633601 0.563823
v -0.060788 0.447216 0.741086
v -0.781199 0.145637 0.348461
v -0.572815 0.145639 0.635278
v -0.386428 0.447216 0.635277
v -0.479618 0.633600 0.348459
v -0.723600 0.447215 0.171195
v -0.572815 0.145639 -0.635278
v -0.781199 0.145637 -0.348461
v -0.723600 0.447215 -0.171195
v -0.479618 0.633600 -0.348459
v -0.386428 0.447216 -0.635277
v 0.427176 0.145639 -0.741091
v 0.090005 0.145636 -0.850644
v -0.060788 0.447216 -0.741086
v 0.183194 0.633601 -0.563823
v 0.484773 0.447215 -0.563826
v 0.836825 0.145636 0.177259
v 0.836825 0.145636 -0.177259
v 0.686035 0.447214 -0.286814
v 0.592844 0.633595 0.000000
v 0.686035 0.447214 0.286814
v 0.093190 0.813609 0.286815
v 0.301575 0.813609 0.000000
v 0.093190 0.813609 -0.286815
v -0.243980 0.813609 -0.177260
v -0.243980 0.813609 0.177260
vn -0.0000 -1.0000 -0.0000
vn 0.7236 -0.4472 0.5257
vn -0.2764 -0.4472 0.8506
vn -0.8944 -0.4472 -0.0000
vn -0.2764 -0.4472 -0.8506
vn 0.7236 -0.4472 -0.5257
vn 0.2764 0.4472 0.8506
vn -0.7236 0.4472 0.5257
vn -0.7236 0.4472 -0.5257
vn 0.2764 0.4472 -0.8506
vn 0.8944 0.4472 -0.0000
vn -0.0000 1.0000 -0.0000
vn -0.4911 -0.7947 0.3568
vn 0.1876 -0.7947 0.5773
vn 0.6071 -0.7947 -0.0000
vn -0.4911 -0.7947 -0.3568
vn 0.1876 -0.7947 -0.5773
vn 0.9822 -0.1876 -0.0000
vn 0.7947 0.1876 0.5773
vn 0.3035 -0.1876 0.9342
vn -0.3035 0.1876 0.9342
vn -0.7947 -0.1876 0.5773
vn -0.9822 0.1876 -0.0000
vn -0.7947 -0.1876 -0.5773
vn -0.3035 0.1876 -0.9342
vn 0.3035 -0.1876 -0.9342
vn 0.7947 0.1876 -0.5773
vn -0.1876 0.7947 0.5773
vn 0.4911 0.7947 0.3568
vn -0.6071 0.7947 -0.0000
vn -0.1876 0.7947 -0.5773
vn 0.4911 0.7947 -0.3568
vt 0.878439 0.053092
vt 0.893765 0.026546
vt 0.909091 0.000000
vt 0.924417 0.026546
vt 0.939743 0.053092
vt 0.308490 0.148612
vt 0.293163 0.192855
vt 0.242076 0.192855
vt 0.211423 0.157461
vt 0.262511 0.104369
vt 0.969348 0.104369
vt 0.984674 0.130915
vt 1.000000 0.157461
vt 0.969348 0.184007
vt 0.938696 0.157461
vt 0.828399 0.104369
vt 0.879487 0.157461
vt 0.848834 0.192855
vt 0.797747 0.192855
vt 0.782421 0.148612
vt 0.646581 0.104369
vt 0.697668 0.157461
vt 0.667016 0.192855
vt 0.615929 0.192855
vt 0.600603 0.148612
vt 0.418784 0.148612
vt 0.464763 0.104369
vt 0.515851 0.157461
vt 0.485198 0.192855
vt 0.434111 0.192855
vt 0.151167 0.261829
vt 0.197145 0.270678
vt 0.222689 0.314921
vt 0.171602 0.350316
vt 0.120514 0.314921
vt 0.878439 0.261830
vt 0.916754 0.275102
vt 0.909091 0.314921
vt 0.878439 0.341467
vt 0.847786 0.314921
vt 0.711947 0.270678
vt 0.757925 0.261830
vt 0.788579 0.314921
vt 0.737491 0.350316
vt 0.686403 0.314921
vt 0.530129 0.270678
vt 0.576107 0.261829
vt 0.606760 0.314921
vt 0.555672 0.350316
vt 0.504585 0.314921
vt 0.332985 0.261830
vt 0.378963 0.270678
vt 0.404507 0.314921
vt 0.353419 0.350316
vt 0.302333 0.314921
vt 0.833508 0.445836
vt 0.818182 0.472382
vt 0.802856 0.445836
vt 0.787530 0.419290
vt 0.848834 0.419290
vt 0.151167 0.053092
vt 0.212471 0.053092
vt 0.152215 0.157461
vt 0.121562 0.104369
vt 0.332985 0.053092
vt 0.394289 0.053092
vt 0.696621 0.053092
vt 0.757925 0.053092
vt 0.514803 0.053092
vt 0.576107 0.053092
vt 0.121562 0.210553
vt 0.060258 0.210552
vt 0.061305 0.314921
vt 0.030652 0.261830
vt 0.030653 0.368013
vt 0.121562 0.419290
vt 0.060257 0.419290
vt 0.303380 0.419290
vt 0.242076 0.419290
vt 0.667016 0.419290
vt 0.605712 0.419290
vt 0.485198 0.419290
vt 0.423894 0.419290
s 0
usemtl Material.005
f 1/1/13 5/5/13 11/11/13 15/15/13 17/17/13 16/16/13
f 5/61/14 4/62/14 10/10/14 9/9/14 12/63/14 11/64/14
f 6/6/15 10/10/15 4/65/15 3/66/15 27/27/15 26/26/15
f 2/67/16 1/68/16 16/16/16 20/20/16 22/22/16 21/21/16
f 3/69/17 2/70/17 21/21/17 25/25/17 28/28/17 27/27/17
f 7/7/18 6/6/18 26/26/18 30/30/18 52/52/18 51/51/18
f 8/8/19 7/7/19 51/51/19 55/55/19 33/33/19 32/32/19
f 13/71/20 12/63/20 9/9/20 8/8/20 32/32/20 31/31/20
f 14/72/21 13/71/21 31/31/21 35/35/21 38/73/21 37/74/21
f 18/18/22 17/17/22 15/15/22 14/14/22 37/37/22 36/36/22
f 19/19/23 18/18/23 36/36/23 40/40/23 43/43/23 42/42/23
f 23/23/24 22/22/24 20/20/24 19/19/24 42/42/24 41/41/24
f 24/24/25 23/23/25 41/41/25 45/45/25 48/48/25 47/47/25
f 29/29/26 28/28/26 25/25/26 24/24/26 47/47/26 46/46/26
f 30/30/27 29/29/27 46/46/27 50/50/27 53/53/27 52/52/27
f 39/75/28 38/73/28 35/35/28 34/34/28 56/76/28 60/77/28
f 34/34/29 33/33/29 55/55/29 54/54/29 57/78/29 56/79/29
f 44/44/30 43/43/30 40/40/30 39/39/30 60/60/30 59/59/30
f 49/49/31 48/48/31 45/45/31 44/44/31 59/80/31 58/81/31
f 54/54/32 53/53/32 50/50/32 49/49/32 58/82/32 57/83/32
usemtl Material.006
f 1/1/1 2/2/1 3/3/1 4/4/1 5/5/1
f 6/6/2 7/7/2 8/8/2 9/9/2 10/10/2
f 11/11/3 12/12/3 13/13/3 14/14/3 15/15/3
f 16/16/4 17/17/4 18/18/4 19/19/4 20/20/4
f 21/21/5 22/22/5 23/23/5 24/24/5 25/25/5
f 26/26/6 27/27/6 28/28/6 29/29/6 30/30/6
f 31/31/7 32/32/7 33/33/7 34/34/7 35/35/7
f 36/36/8 37/37/8 38/38/8 39/39/8 40/40/8
f 41/41/9 42/42/9 43/43/9 44/44/9 45/45/9
f 46/46/10 47/47/10 48/48/10 49/49/10 50/50/10
f 51/51/11 52/52/11 53/53/11 54/54/11 55/55/11
f 56/56/12 57/57/12 58/58/12 59/59/12 60/60/12
